<mxfile host="app.diagrams.net" modified="2020-04-28T02:44:00.872Z" agent="5.0 (Windows NT 6.1; Win64; x64) AppleWebKit/537.36 (KHTML, like Gecko) Chrome/80.0.3987.116 Safari/537.36" etag="xheElSjrGIl9EYgn6O7u" version="12.9.11" type="github">
  <diagram name="HBNET" id="bfe91b75-5d2c-26a0-9c1d-138518896778">
    <mxGraphModel dx="1422" dy="1643" grid="1" gridSize="10" guides="1" tooltips="1" connect="1" arrows="1" fold="1" page="1" pageScale="1" pageWidth="1100" pageHeight="850" background="#ffffff" math="0" shadow="0">
      <root>
        <mxCell id="0" />
        <mxCell id="1" parent="0" />
        <mxCell id="O7QGw5CbR7ejl1Z9jS40-17" style="edgeStyle=orthogonalEdgeStyle;curved=1;rounded=0;orthogonalLoop=1;jettySize=auto;html=1;fontSize=20;" parent="1" source="O7QGw5CbR7ejl1Z9jS40-1" target="O7QGw5CbR7ejl1Z9jS40-15" edge="1">
          <mxGeometry relative="1" as="geometry" />
        </mxCell>
        <mxCell id="O7QGw5CbR7ejl1Z9jS40-1" value="nginx" style="aspect=fixed;perimeter=ellipsePerimeter;html=1;align=center;shadow=0;dashed=0;spacingTop=3;image;image=img/lib/active_directory/web_server.svg;fontSize=20;" parent="1" vertex="1">
          <mxGeometry x="290" y="280" width="40" height="50" as="geometry" />
        </mxCell>
        <mxCell id="O7QGw5CbR7ejl1Z9jS40-9" style="rounded=0;orthogonalLoop=1;jettySize=auto;html=1;entryX=0;entryY=0.25;entryDx=0;entryDy=0;fontSize=20;exitX=1;exitY=0.5;exitDx=0;exitDy=0;edgeStyle=orthogonalEdgeStyle;curved=1;" parent="1" source="O7QGw5CbR7ejl1Z9jS40-4" target="O7QGw5CbR7ejl1Z9jS40-7" edge="1">
          <mxGeometry relative="1" as="geometry">
            <Array as="points">
              <mxPoint x="1130" y="215" />
              <mxPoint x="1130" y="264" />
            </Array>
          </mxGeometry>
        </mxCell>
        <mxCell id="O7QGw5CbR7ejl1Z9jS40-4" value="cmpfudsvr" style="aspect=fixed;perimeter=ellipsePerimeter;html=1;align=center;shadow=0;dashed=0;spacingTop=3;image;image=img/lib/active_directory/windows_server.svg;fontSize=20;" parent="1" vertex="1">
          <mxGeometry x="680" y="230" width="41" height="50" as="geometry" />
        </mxCell>
        <mxCell id="O7QGw5CbR7ejl1Z9jS40-7" value="cmpmonitorsvr" style="aspect=fixed;perimeter=ellipsePerimeter;html=1;align=center;shadow=0;dashed=0;spacingTop=3;image;image=img/lib/active_directory/windows_server.svg;fontSize=20;" parent="1" vertex="1">
          <mxGeometry x="1160" y="250" width="41" height="50" as="geometry" />
        </mxCell>
        <mxCell id="O7QGw5CbR7ejl1Z9jS40-40" style="edgeStyle=orthogonalEdgeStyle;curved=1;rounded=0;orthogonalLoop=1;jettySize=auto;html=1;entryX=0;entryY=0.25;entryDx=0;entryDy=0;fontSize=20;" parent="1" source="O7QGw5CbR7ejl1Z9jS40-8" target="O7QGw5CbR7ejl1Z9jS40-7" edge="1">
          <mxGeometry relative="1" as="geometry">
            <Array as="points">
              <mxPoint x="1130" y="150" />
              <mxPoint x="1130" y="264" />
            </Array>
          </mxGeometry>
        </mxCell>
        <mxCell id="O7QGw5CbR7ejl1Z9jS40-8" value="cmpmediatrans" style="aspect=fixed;perimeter=ellipsePerimeter;html=1;align=center;shadow=0;dashed=0;spacingTop=3;image;image=img/lib/active_directory/windows_server.svg;fontSize=20;" parent="1" vertex="1">
          <mxGeometry x="940" y="120" width="41" height="50" as="geometry" />
        </mxCell>
        <mxCell id="O7QGw5CbR7ejl1Z9jS40-42" style="edgeStyle=orthogonalEdgeStyle;curved=1;rounded=0;orthogonalLoop=1;jettySize=auto;html=1;exitX=1;exitY=0.5;exitDx=0;exitDy=0;entryX=0.75;entryY=0;entryDx=0;entryDy=0;fontSize=20;" parent="1" source="O7QGw5CbR7ejl1Z9jS40-11" target="O7QGw5CbR7ejl1Z9jS40-7" edge="1">
          <mxGeometry relative="1" as="geometry" />
        </mxCell>
        <mxCell id="O7QGw5CbR7ejl1Z9jS40-11" value="cmpmediasvr" style="aspect=fixed;perimeter=ellipsePerimeter;html=1;align=center;shadow=0;dashed=0;spacingTop=3;image;image=img/lib/active_directory/windows_server.svg;fontSize=20;" parent="1" vertex="1">
          <mxGeometry x="940" y="-130" width="41" height="50" as="geometry" />
        </mxCell>
        <mxCell id="O7QGw5CbR7ejl1Z9jS40-43" style="edgeStyle=orthogonalEdgeStyle;curved=1;rounded=0;orthogonalLoop=1;jettySize=auto;html=1;entryX=0.75;entryY=0;entryDx=0;entryDy=0;fontSize=20;" parent="1" source="O7QGw5CbR7ejl1Z9jS40-12" target="O7QGw5CbR7ejl1Z9jS40-7" edge="1">
          <mxGeometry relative="1" as="geometry" />
        </mxCell>
        <mxCell id="O7QGw5CbR7ejl1Z9jS40-12" value="cmpfiletranscode" style="aspect=fixed;perimeter=ellipsePerimeter;html=1;align=center;shadow=0;dashed=0;spacingTop=3;image;image=img/lib/active_directory/windows_server.svg;fontSize=20;" parent="1" vertex="1">
          <mxGeometry x="940" y="-10" width="41" height="50" as="geometry" />
        </mxCell>
        <mxCell id="O7QGw5CbR7ejl1Z9jS40-19" style="rounded=0;orthogonalLoop=1;jettySize=auto;html=1;entryX=0;entryY=0.5;entryDx=0;entryDy=0;fontSize=20;edgeStyle=orthogonalEdgeStyle;curved=1;" parent="1" source="O7QGw5CbR7ejl1Z9jS40-15" target="O7QGw5CbR7ejl1Z9jS40-18" edge="1">
          <mxGeometry relative="1" as="geometry" />
        </mxCell>
        <mxCell id="O7QGw5CbR7ejl1Z9jS40-53" value="后台管控" style="text;html=1;align=center;verticalAlign=middle;resizable=0;points=[];labelBackgroundColor=#ffffff;fontSize=20;" parent="O7QGw5CbR7ejl1Z9jS40-19" vertex="1" connectable="0">
          <mxGeometry x="-0.1942" y="-3" relative="1" as="geometry">
            <mxPoint as="offset" />
          </mxGeometry>
        </mxCell>
        <mxCell id="O7QGw5CbR7ejl1Z9jS40-36" style="edgeStyle=orthogonalEdgeStyle;curved=1;rounded=0;orthogonalLoop=1;jettySize=auto;html=1;exitX=1;exitY=0.5;exitDx=0;exitDy=0;fontSize=20;" parent="1" source="O7QGw5CbR7ejl1Z9jS40-15" target="O7QGw5CbR7ejl1Z9jS40-20" edge="1">
          <mxGeometry relative="1" as="geometry" />
        </mxCell>
        <mxCell id="O7QGw5CbR7ejl1Z9jS40-52" value="notify" style="text;html=1;align=center;verticalAlign=middle;resizable=0;points=[];labelBackgroundColor=#ffffff;fontSize=20;" parent="O7QGw5CbR7ejl1Z9jS40-36" vertex="1" connectable="0">
          <mxGeometry x="0.1121" y="-31" relative="1" as="geometry">
            <mxPoint as="offset" />
          </mxGeometry>
        </mxCell>
        <mxCell id="O7QGw5CbR7ejl1Z9jS40-37" style="edgeStyle=orthogonalEdgeStyle;curved=1;rounded=0;orthogonalLoop=1;jettySize=auto;html=1;exitX=1;exitY=0.5;exitDx=0;exitDy=0;entryX=0;entryY=0.5;entryDx=0;entryDy=0;fontSize=20;" parent="1" source="O7QGw5CbR7ejl1Z9jS40-15" target="O7QGw5CbR7ejl1Z9jS40-4" edge="1">
          <mxGeometry relative="1" as="geometry" />
        </mxCell>
        <mxCell id="O7QGw5CbR7ejl1Z9jS40-51" value="upload" style="text;html=1;align=center;verticalAlign=middle;resizable=0;points=[];labelBackgroundColor=#ffffff;fontSize=20;" parent="O7QGw5CbR7ejl1Z9jS40-37" vertex="1" connectable="0">
          <mxGeometry x="0.39" y="-5" relative="1" as="geometry">
            <mxPoint as="offset" />
          </mxGeometry>
        </mxCell>
        <mxCell id="O7QGw5CbR7ejl1Z9jS40-49" style="edgeStyle=orthogonalEdgeStyle;curved=1;rounded=0;orthogonalLoop=1;jettySize=auto;html=1;entryX=0;entryY=0.5;entryDx=0;entryDy=0;fontSize=20;" parent="1" source="O7QGw5CbR7ejl1Z9jS40-15" target="O7QGw5CbR7ejl1Z9jS40-33" edge="1">
          <mxGeometry relative="1" as="geometry" />
        </mxCell>
        <mxCell id="O7QGw5CbR7ejl1Z9jS40-50" value="proxy" style="text;html=1;align=center;verticalAlign=middle;resizable=0;points=[];labelBackgroundColor=#ffffff;fontSize=20;" parent="O7QGw5CbR7ejl1Z9jS40-49" vertex="1" connectable="0">
          <mxGeometry x="0.1678" y="-2" relative="1" as="geometry">
            <mxPoint x="1" as="offset" />
          </mxGeometry>
        </mxCell>
        <mxCell id="O7QGw5CbR7ejl1Z9jS40-15" value="cmpapi" style="aspect=fixed;perimeter=ellipsePerimeter;html=1;align=center;shadow=0;dashed=0;spacingTop=3;image;image=img/lib/active_directory/windows_server.svg;fontSize=20;" parent="1" vertex="1">
          <mxGeometry x="430" y="280" width="41" height="50" as="geometry" />
        </mxCell>
        <mxCell id="O7QGw5CbR7ejl1Z9jS40-18" value="cmp database" style="aspect=fixed;perimeter=ellipsePerimeter;html=1;align=center;shadow=0;dashed=0;spacingTop=3;image;image=img/lib/active_directory/databases.svg;fontSize=20;" parent="1" vertex="1">
          <mxGeometry x="675.5" y="660" width="50" height="49" as="geometry" />
        </mxCell>
        <mxCell id="O7QGw5CbR7ejl1Z9jS40-21" style="edgeStyle=orthogonalEdgeStyle;curved=1;rounded=0;orthogonalLoop=1;jettySize=auto;html=1;entryX=0.5;entryY=0;entryDx=0;entryDy=0;fontSize=20;" parent="1" source="O7QGw5CbR7ejl1Z9jS40-20" target="O7QGw5CbR7ejl1Z9jS40-18" edge="1">
          <mxGeometry relative="1" as="geometry" />
        </mxCell>
        <mxCell id="O7QGw5CbR7ejl1Z9jS40-20" value="NotifyServer&lt;br&gt;" style="aspect=fixed;perimeter=ellipsePerimeter;html=1;align=center;shadow=0;dashed=0;spacingTop=3;image;image=img/lib/active_directory/windows_server.svg;fontSize=20;" parent="1" vertex="1">
          <mxGeometry x="680" y="410" width="41" height="50" as="geometry" />
        </mxCell>
        <mxCell id="O7QGw5CbR7ejl1Z9jS40-23" style="edgeStyle=orthogonalEdgeStyle;curved=1;rounded=0;orthogonalLoop=1;jettySize=auto;html=1;fontSize=20;" parent="1" source="O7QGw5CbR7ejl1Z9jS40-22" target="O7QGw5CbR7ejl1Z9jS40-7" edge="1">
          <mxGeometry relative="1" as="geometry">
            <mxPoint x="830" y="195" as="targetPoint" />
          </mxGeometry>
        </mxCell>
        <mxCell id="O7QGw5CbR7ejl1Z9jS40-22" value="cmpmediarec" style="aspect=fixed;perimeter=ellipsePerimeter;html=1;align=center;shadow=0;dashed=0;spacingTop=3;image;image=img/lib/active_directory/windows_server.svg;fontSize=20;" parent="1" vertex="1">
          <mxGeometry x="940" y="720" width="41" height="50" as="geometry" />
        </mxCell>
        <mxCell id="O7QGw5CbR7ejl1Z9jS40-25" style="edgeStyle=orthogonalEdgeStyle;curved=1;rounded=0;orthogonalLoop=1;jettySize=auto;html=1;fontSize=20;entryX=0;entryY=0.5;entryDx=0;entryDy=0;" parent="1" source="O7QGw5CbR7ejl1Z9jS40-24" target="O7QGw5CbR7ejl1Z9jS40-7" edge="1">
          <mxGeometry relative="1" as="geometry">
            <mxPoint x="710" y="240" as="targetPoint" />
          </mxGeometry>
        </mxCell>
        <mxCell id="O7QGw5CbR7ejl1Z9jS40-24" value="cmpdoctranscode" style="aspect=fixed;perimeter=ellipsePerimeter;html=1;align=center;shadow=0;dashed=0;spacingTop=3;image;image=img/lib/active_directory/windows_server.svg;fontSize=20;" parent="1" vertex="1">
          <mxGeometry x="940" y="250" width="41" height="50" as="geometry" />
        </mxCell>
        <mxCell id="O7QGw5CbR7ejl1Z9jS40-27" style="edgeStyle=orthogonalEdgeStyle;curved=1;rounded=0;orthogonalLoop=1;jettySize=auto;html=1;fontSize=20;entryX=0;entryY=0.75;entryDx=0;entryDy=0;" parent="1" source="O7QGw5CbR7ejl1Z9jS40-26" target="O7QGw5CbR7ejl1Z9jS40-7" edge="1">
          <mxGeometry relative="1" as="geometry">
            <mxPoint x="710" y="240" as="targetPoint" />
            <Array as="points">
              <mxPoint x="1110" y="375" />
              <mxPoint x="1110" y="286" />
            </Array>
          </mxGeometry>
        </mxCell>
        <mxCell id="O7QGw5CbR7ejl1Z9jS40-26" value="cmpfilecdn" style="aspect=fixed;perimeter=ellipsePerimeter;html=1;align=center;shadow=0;dashed=0;spacingTop=3;image;image=img/lib/active_directory/windows_server.svg;fontSize=20;" parent="1" vertex="1">
          <mxGeometry x="940" y="350" width="41" height="50" as="geometry" />
        </mxCell>
        <mxCell id="O7QGw5CbR7ejl1Z9jS40-41" style="edgeStyle=orthogonalEdgeStyle;curved=1;rounded=0;orthogonalLoop=1;jettySize=auto;html=1;entryX=0;entryY=0.75;entryDx=0;entryDy=0;fontSize=20;exitX=1;exitY=0.5;exitDx=0;exitDy=0;" parent="1" source="O7QGw5CbR7ejl1Z9jS40-29" target="O7QGw5CbR7ejl1Z9jS40-7" edge="1">
          <mxGeometry relative="1" as="geometry">
            <Array as="points">
              <mxPoint x="991" y="490" />
              <mxPoint x="1120" y="490" />
              <mxPoint x="1120" y="286" />
            </Array>
          </mxGeometry>
        </mxCell>
        <mxCell id="O7QGw5CbR7ejl1Z9jS40-29" value="cmplivetransmit" style="aspect=fixed;perimeter=ellipsePerimeter;html=1;align=center;shadow=0;dashed=0;spacingTop=3;image;image=img/lib/active_directory/windows_server.svg;fontSize=20;" parent="1" vertex="1">
          <mxGeometry x="940" y="470" width="41" height="50" as="geometry" />
        </mxCell>
        <mxCell id="O7QGw5CbR7ejl1Z9jS40-44" style="edgeStyle=orthogonalEdgeStyle;curved=1;rounded=0;orthogonalLoop=1;jettySize=auto;html=1;entryX=0.5;entryY=1;entryDx=0;entryDy=0;fontSize=20;" parent="1" source="O7QGw5CbR7ejl1Z9jS40-31" target="O7QGw5CbR7ejl1Z9jS40-7" edge="1">
          <mxGeometry relative="1" as="geometry" />
        </mxCell>
        <mxCell id="O7QGw5CbR7ejl1Z9jS40-31" value="cmpfilesnapshot" style="aspect=fixed;perimeter=ellipsePerimeter;html=1;align=center;shadow=0;dashed=0;spacingTop=3;image;image=img/lib/active_directory/windows_server.svg;fontSize=20;" parent="1" vertex="1">
          <mxGeometry x="940" y="610" width="41" height="50" as="geometry" />
        </mxCell>
        <mxCell id="O7QGw5CbR7ejl1Z9jS40-45" style="rounded=0;orthogonalLoop=1;jettySize=auto;html=1;exitX=1;exitY=0.5;exitDx=0;exitDy=0;entryX=0.75;entryY=0;entryDx=0;entryDy=0;fontSize=20;edgeStyle=orthogonalEdgeStyle;curved=1;" parent="1" source="O7QGw5CbR7ejl1Z9jS40-33" target="O7QGw5CbR7ejl1Z9jS40-7" edge="1">
          <mxGeometry relative="1" as="geometry" />
        </mxCell>
        <mxCell id="O7QGw5CbR7ejl1Z9jS40-33" value="cmpmediagw" style="aspect=fixed;perimeter=ellipsePerimeter;html=1;align=center;shadow=0;dashed=0;spacingTop=3;image;image=img/lib/active_directory/windows_server.svg;fontSize=20;" parent="1" vertex="1">
          <mxGeometry x="680" y="60" width="41" height="50" as="geometry" />
        </mxCell>
        <mxCell id="O7QGw5CbR7ejl1Z9jS40-48" style="edgeStyle=orthogonalEdgeStyle;curved=1;rounded=0;orthogonalLoop=1;jettySize=auto;html=1;fontSize=20;" parent="1" source="O7QGw5CbR7ejl1Z9jS40-47" target="O7QGw5CbR7ejl1Z9jS40-1" edge="1">
          <mxGeometry relative="1" as="geometry" />
        </mxCell>
        <mxCell id="O7QGw5CbR7ejl1Z9jS40-47" value="客户端浏览器" style="aspect=fixed;perimeter=ellipsePerimeter;html=1;align=center;shadow=0;dashed=0;spacingTop=3;image;image=img/lib/active_directory/home_page.svg;fontSize=20;" parent="1" vertex="1">
          <mxGeometry x="80" y="282.5" width="50" height="45" as="geometry" />
        </mxCell>
      </root>
    </mxGraphModel>
  </diagram>
</mxfile>
